PathFileType	4	(X/Y/Z)	s10c0401.trc
DataRate	CameraRate	NumFrames	NumMarkers	Units	OrigDataRate	OrigDataStartFrame	OrigNumFrames
200	200	5	50	mm	200	500	2000
Frame#	Time	racr			lacr			c7			jug			rlel			rdr			llel			ldr			s2			lic			ric			lasi			rasi			rpsi			lpsi			rgt			lgt			rth1			rth2			rth3			rth4			rlfc			rmfc			rsh1			rsh2			rsh3			rsh4			rlmal			rmmal			rcal			rtoe			rmt5			lth1			lth2			lth4			lth3			llfc			lmfc			llmal			lmmal			lcal			lmt5			lsh1			lsh2			lsh3			lsh4			ltoe			SBIKE			LBIKE			RBIKE			
		X1	Y1	Z1	X2	Y2	Z2	X3	Y3	Z3	X4	Y4	Z4	X5	Y5	Z5	X6	Y6	Z6	X7	Y7	Z7	X8	Y8	Z8	X9	Y9	Z9	X10	Y10	Z10	X11	Y11	Z11	X12	Y12	Z12	X13	Y13	Z13	X14	Y14	Z14	X15	Y15	Z15	X16	Y16	Z16	X17	Y17	Z17	X18	Y18	Z18	X19	Y19	Z19	X20	Y20	Z20	X21	Y21	Z21	X22	Y22	Z22	X23	Y23	Z23	X24	Y24	Z24	X25	Y25	Z25	X26	Y26	Z26	X27	Y27	Z27	X28	Y28	Z28	X29	Y29	Z29	X30	Y30	Z30	X31	Y31	Z31	X32	Y32	Z32	X33	Y33	Z33	X34	Y34	Z34	X35	Y35	Z35	X36	Y36	Z36	X37	Y37	Z37	X38	Y38	Z38	X39	Y39	Z39	X40	Y40	Z40	X41	Y41	Z41	X42	Y42	Z42	X43	Y43	Z43	X44	Y44	Z44	X45	Y45	Z45	X46	Y46	Z46	X47	Y47	Z47	X48	Y48	Z48	X49	Y49	Z49	X50	Y50	Z50	
500	2.5000	367.936816	1308.144774	-46.897931	361.194529	1296.649828	-387.766445	357.405335	1354.296360	-217.109117	369.343869	1213.015381	-210.161379	449.642150	1062.142297	18.970154	622.520414	912.512098	-29.386295	428.151365	1044.294163	-474.248094	618.381806	914.914641	-432.018034	-116.617116	1090.046618	-214.273163	43.331329	1107.682842	-369.005244	60.926378	1117.277337	-73.538900	77.859992	1019.847333	-337.959356	61.776891	1028.884291	-84.778068	-78.642410	1142.478766	-159.114732	-73.673657	1148.513648	-268.512264	-49.215734	1004.550116	-21.572522	-54.079104	972.916992	-408.399360	50.852592	914.560509	7.524773	139.798635	910.023154	2.280324	211.040981	862.353982	1.408575	150.074099	945.513642	-7.347411	324.390912	822.632230	-13.290534	324.867312	818.077526	-131.716292	273.098134	715.935897	2.148207	273.289300	629.202909	-19.092781	230.406210	555.424937	-33.215844	303.018299	627.317972	-42.717227	202.782662	458.355327	-60.622446	226.286880	481.815413	-137.557633	150.927863	436.368192	-108.331602	392.786076	420.408567	-105.560039	311.699806	392.988771	-42.939227	16.291118	864.826702	-431.515457	90.645692	819.654531	-427.245313	116.781943	844.386076	-418.419484	133.354738	741.630622	-427.219770	203.555397	651.752826	-413.717202	212.697724	646.287216	-294.410554	-53.390978	377.557883	-376.788398	-34.686440	375.056960	-297.262131	-114.145186	375.421018	-328.861860	7.195838	250.461624	-399.436686	107.524878	571.801784	-431.959073	78.305450	490.967191	-412.148640	8.487789	436.569853	-400.543919	103.789867	478.928998	-386.711189	94.856687	234.565235	-346.555918	-218.535657	833.877274	-214.004681	-104.057725	80.349114	-418.326392	-104.054177	80.443192	-18.341757	
501	2.5050	367.951944	1308.085530	-46.831339	361.207941	1296.650710	-387.677593	357.385068	1354.265931	-217.040444	369.317100	1212.987595	-210.106549	449.619076	1062.113664	19.067431	622.508164	912.514289	-29.348619	428.178344	1044.321249	-474.252486	618.392388	914.908315	-432.010957	-116.654385	1090.047432	-214.286510	43.337956	1107.671760	-368.956818	60.895652	1117.237657	-73.541005	77.871649	1019.849957	-337.919595	61.719099	1028.872895	-84.752142	-78.724235	1142.477063	-159.112736	-73.734495	1148.510967	-268.510555	-49.267490	1004.588885	-21.548785	-54.084200	972.882254	-408.382248	50.838206	914.694319	7.511720	139.771997	910.222367	2.278332	211.052592	862.671023	1.456496	150.051358	945.751488	-7.390050	324.442004	822.915344	-13.199848	324.939218	818.377088	-131.655770	273.120400	716.270462	2.178317	273.304275	629.547895	-19.067946	230.346697	555.857398	-33.206913	303.012048	627.621031	-42.690869	202.680308	458.710806	-60.588876	226.263671	482.139565	-137.609443	150.750211	436.556851	-108.321915	392.666695	420.745009	-105.554878	311.562285	393.081880	-43.158524	16.226482	864.756602	-431.485822	90.544126	819.525747	-427.205505	116.693074	844.242229	-418.355611	133.229295	741.484266	-427.138243	203.350983	651.511856	-413.698097	212.443275	646.064056	-294.356005	-53.408638	377.057835	-376.694369	-34.277753	374.386441	-297.407486	-114.150627	375.007480	-328.840082	7.319456	250.095907	-399.459818	107.365503	571.574875	-431.912954	78.211157	490.768115	-412.102304	8.416891	436.165472	-400.491537	103.702070	478.658859	-386.650633	94.978595	234.298687	-346.553597	-218.538270	833.872828	-214.001648	-104.030738	80.404581	-418.380739	-104.032805	80.428926	-18.346320	
502	2.5100	367.935992	1308.042204	-46.748558	361.227810	1296.647959	-387.619148	357.358121	1354.238011	-216.989516	369.281378	1212.940273	-210.053069	449.612493	1062.077343	19.165409	622.506938	912.533247	-29.296725	428.195220	1044.351927	-474.279600	618.397031	914.875906	-431.990932	-116.696226	1090.048247	-214.299273	43.348241	1107.662107	-368.919963	60.841017	1117.218605	-73.544058	77.869257	1019.836156	-337.881922	61.652107	1028.829072	-84.752315	-78.786009	1142.480896	-159.136596	-73.740122	1148.518807	-268.541604	-49.325322	1004.615283	-21.538615	-54.079026	972.851413	-408.368283	50.803234	914.849346	7.471016	139.779901	910.438954	2.249667	211.052945	862.882709	1.501643	150.019769	945.952654	-7.411754	324.477064	823.180512	-13.129786	325.010905	818.748879	-131.607564	273.105908	716.662082	2.224124	273.294283	629.791233	-19.031083	230.327714	556.254876	-33.241314	302.986801	627.927077	-42.665673	202.549417	459.179544	-60.593083	226.165282	482.448018	-137.565626	150.657771	437.052723	-108.394432	392.574861	421.091323	-105.544744	311.239384	393.807198	-42.797235	16.178160	864.660519	-431.430566	90.445802	819.370928	-427.136587	116.635809	844.118775	-418.328954	133.072698	741.315629	-427.057373	203.159734	651.310112	-413.645826	212.229758	645.899579	-294.291999	-53.405171	376.689124	-376.703328	-34.582585	374.223166	-297.269750	-114.151020	374.585597	-328.852464	7.443705	249.811473	-399.443215	107.181934	571.335547	-431.816215	78.103940	490.505965	-412.033736	8.375821	435.851998	-400.460580	103.608972	478.414809	-386.620865	95.101021	234.013504	-346.512359	-218.549123	833.885939	-214.005428	-104.037084	80.411574	-418.394284	-104.042678	80.440731	-18.350438	
503	2.5150	367.920986	1308.016723	-46.658354	361.245551	1296.608889	-387.541872	357.338739	1354.206725	-216.921384	369.257343	1212.894088	-209.987465	449.564927	1062.029211	19.273202	622.484131	912.520409	-29.263639	428.211316	1044.355999	-474.305393	618.394528	914.868613	-431.940828	-116.745375	1090.046575	-214.327281	43.340245	1107.669981	-368.899992	60.788631	1117.194394	-73.557673	77.854342	1019.830195	-337.855187	61.585723	1028.818347	-84.706627	-78.849184	1142.498654	-159.117776	-73.802496	1148.534180	-268.544136	-49.396775	1004.655109	-21.528626	-54.087087	972.820256	-408.378060	50.789624	914.992080	7.402425	139.777109	910.650940	2.213359	211.048827	863.139870	1.547776	149.976316	946.167316	-7.471036	324.497383	823.483755	-13.063418	325.110628	819.019170	-131.558551	273.123516	716.942444	2.293235	273.275441	630.030415	-18.975933	230.246816	556.556934	-33.222967	302.996279	628.199328	-42.654519	202.443151	459.521578	-60.585206	226.007527	482.865844	-137.522505	150.545187	437.409308	-108.338896	392.472809	421.404468	-105.553115	311.110732	394.102862	-42.804053	16.118318	864.566799	-431.400907	90.351736	819.231514	-427.119830	116.565143	843.989737	-418.292196	132.933932	741.142996	-426.966145	202.946051	651.115071	-413.597187	212.006183	645.714038	-294.230158	-53.401319	376.379921	-376.703106	-34.307281	373.649422	-297.354046	-114.154211	374.167345	-328.835365	7.551607	249.546011	-399.469423	107.008568	571.116430	-431.756423	78.006041	490.232330	-411.988634	8.343242	435.545608	-400.418606	103.529662	478.198892	-386.602453	95.220722	233.743221	-346.493870	-218.530873	833.874090	-213.988178	-104.034605	80.392215	-418.405322	-104.047945	80.426232	-18.346527	
504	2.5200	367.923437	1307.962271	-46.581591	361.257420	1296.606205	-387.461750	357.308263	1354.138673	-216.821030	369.235355	1212.865856	-209.918449	449.547849	1061.982493	19.364581	622.472914	912.540213	-29.234144	428.213148	1044.345482	-474.311404	618.384949	914.857851	-431.887438	-116.796218	1090.047854	-214.348132	43.336759	1107.650844	-368.890700	60.721357	1117.157558	-73.547860	77.838311	1019.823382	-337.827953	61.512283	1028.777118	-84.696629	-78.901298	1142.485218	-159.200005	-73.863952	1148.544822	-268.536926	-49.498121	1004.692506	-21.514404	-54.089178	972.790411	-408.377504	50.766415	915.140944	7.342092	139.789928	910.872460	2.181065	211.040580	863.365913	1.577723	149.929701	946.396338	-7.505065	324.550175	823.806994	-13.004553	325.191855	819.260409	-131.529446	273.145321	717.197863	2.348562	273.263484	630.355365	-18.956460	230.203104	556.781232	-33.204985	302.958129	628.515592	-42.621353	202.360525	459.785695	-60.569490	225.918024	483.200458	-137.476216	150.439276	437.768687	-108.347524	392.376804	421.671840	-105.540948	310.992584	394.348082	-42.800448	16.070307	864.478683	-431.354836	90.262284	819.085000	-427.069855	116.490592	843.849759	-418.240431	132.814063	740.981241	-426.929918	202.747554	650.938956	-413.526513	211.833949	645.535923	-294.174994	-53.389520	376.109319	-376.703917	-34.430485	373.407676	-297.289486	-114.157738	373.781285	-328.809477	7.620157	249.244096	-399.456057	106.859448	570.887602	-431.679097	77.913643	489.927705	-411.898339	8.306562	435.299538	-400.361126	103.424955	477.954832	-386.496396	95.316701	233.555032	-346.449692	-218.545356	833.875303	-213.990782	-104.032198	80.414890	-418.385390	-104.046168	80.424931	-18.347973	
